#!OML:ASF F:\VICON\USERDATA\INSTALL\rory3\rory3.ASF
:FULLY-SPECIFIED
:DEGREES
96
root 1.326166872981137 17.90639413850368 49.502827228969615 -2.5407908012671516 -2.4787073395380808 -0.584614484168261
lfemur 6.227532574948281 -3.231735705152242 -20.973733511347366
ltibia 41.08136746124039
lfoot -3.82062357406285 0.03252249534365492
ltoes -5.149567631902031
rfemur -22.192851462861046 2.8186073254078208 24.166306097243385
rtibia 26.03057160812179
rfoot -11.796896485467387 -7.931620071153098
rtoes 1.8583466968201439
lowerback 1.0 -1.1513955324231206 -0.47312283956807333
upperback 0.30064068763359597 -1.4630199891953553 1.9846664431861498
thorax -4.817727999319345 -0.7431906001217786 2.9119173751442364
lowerneck -17.004857869033366 -2.666012823631216 -1.69556272692152
upperneck 21.77381071174448 -3.3329756042262217 0.476267663182109
head 9.783499517109611 -1.649973982475742 0.10455407584828595
lclavicle -1.0685736722932658e-15 -4.004389533635129e-16
lhumerus -26.945853468451464 -3.3572697018023776 83.69451914119142
lradius 24.278258107724504
lwrist 6.113316595196803
lhand -26.906112669985507 23.423009314441753
lfingers nan
lthumb -0.09493248436177082 53.7430656471191
rclavicle -1.1613573856010076e-15 -4.778736344494779e-16
rhumerus -30.695244400254786 -21.43890508752475 -78.7861959569073
rradius 28.87434733478134
rwrist 4.776499778373937
rhand -17.60616290446175 1.0
rfingers nan
rthumb 8.814443037875238 -8.334752833602932
97
root 1.323610219037974 17.90949344680587 48.48510527384505 -2.626942058330568 -2.8789271964208627 -1.6503614938263018
lfemur 4.196532570777295 -2.5007586278793625 -18.917044268814458
ltibia 45.67286869656229
lfoot -2.9321598835716745 1.7068574100451634
ltoes -6.295481470962642
rfemur -20.015159898199006 3.4213571681663724 25.717241247118565
rtibia 25.862501772077717
rfoot -13.181539055409901 -8.564171385951427
rtoes 2.4971981007958113
lowerback 1.0 -0.9500491796807723 0.2226661324422463
upperback 0.2973431218667263 -1.0964986500610194 2.1629744496577774
thorax -4.859052687781589 -0.5544482390055033 2.746024792349131
lowerneck -17.062598217936735 -2.6957441589054785 -1.5871099654572078
upperneck 21.63046751749541 -3.379135785963221 0.45143929675067823
head 9.726905386375858 -1.6705351606227539 0.07233482876901717
lclavicle -1.0667189359119233e-15 -3.9943651939543685e-16
lhumerus -27.46339507156016 -3.163557654028316 83.74777214794204
lradius 23.66902353482329
lwrist 6.379480119479441
lhand -26.969561110599486 23.352009424350225
lfingers nan
lthumb -0.14562095927058621 53.67676816387206
rclavicle -1.1618532048243478e-15 -4.786753782620398e-16
rhumerus -30.643160416937903 -21.68367933323065 -78.48849833007615
rradius 28.933810612268672
rwrist 4.856932323483258
rhand -17.64016792357166 1.0
rfingers nan
rthumb 8.781152106330648 -8.411955775693965
98
root 1.3069243669224146 17.898406597409608 47.627948135100986 -2.753152324400963 -3.131043530267446 -3.2133526482065125
lfemur 1.4539130362417971 -1.7251392171952324 -16.290616286359977
ltibia 50.32649975321257
lfoot -3.5974344216017853 1.367052615906002
ltoes -5.814860395518204
rfemur -17.893999366357757 4.0744423656080055 27.355752335175087
rtibia 26.229034622386614
rfoot -14.973628397440745 -9.43426836854882
rtoes 2.555931801151344
lowerback 1.0 -0.6928967835163339 1.3123754937995575
upperback 0.29840926678020485 -0.4875725368206347 2.433222924726273
thorax -4.945009644563705 -0.2563542995980097 2.3579515806596616
lowerneck -17.117675616721904 -2.7400512899511997 -1.4437249501557523
upperneck 21.466158557504606 -3.449512976509596 0.42960681015413454
head 9.669006660195077 -1.7001748729608899 0.031240978642916473
lclavicle -1.0650024664190516e-15 -3.988685054950755e-16
lhumerus -27.981686249036137 -2.7820236483081917 83.81866259774851
lradius 23.15741661855269
lwrist 6.658719686833796
lhand -27.018571633229488 23.319733118369168
lfingers nan
lthumb -0.19940614090373193 53.63107341664874
rclavicle -1.161005141839093e-15 -4.78638571331493e-16
rhumerus -30.455184554341248 -21.826147190996366 -78.24175482094157
rradius 28.964036655802385
rwrist 4.877160134347759
rhand -17.63876592004998 1.0
rfingers nan
rthumb 8.729477585206624 -8.510965656390404
99
root 1.27210800276412 17.894737848241473 46.742626299730226 -2.6404952921845166 -3.104106509212646 -5.167052534655595
lfemur -2.168505211422932 -1.0082917779112084 -13.445307769163396
ltibia 54.8840789453035
lfoot -2.8518198566524755 2.774971839787611
ltoes -7.7791363327202045
rfemur -15.34412331354408 4.609966129423628 29.11042666584764
rtibia 26.63342405570834
rfoot -16.673197380675248 -10.54042007311281
rtoes 1.976692789218326
lowerback 1.0 -0.42349949272968457 2.767432858935517
upperback 0.28466269622629825 0.2256991930118798 2.7000379909251997
thorax -5.062624503455412 0.09279888075234055 1.7993882190387605
lowerneck -17.17845575022314 -2.7958869752599123 -1.263243551892894
upperneck 21.301198906116838 -3.5399757196964337 0.40590291328940425
head 9.61626375423392 -1.737545436343054 -0.017716608966038522
lclavicle -1.063118355848202e-15 -3.9905117641862344e-16
lhumerus -28.551261076539546 -2.320019574816751 83.90392091609611
lradius 22.77950468610731
lwrist 6.907008093328076
lhand -27.078676670288708 23.263945781612062
lfingers nan
lthumb -0.27001809382404895 53.5736067181604
rclavicle -1.1579719020452712e-15 -4.77464487267319e-16
rhumerus -30.15103107651171 -21.81232300516043 -78.07718472105613
rradius 28.961085801673683
rwrist 4.856916654992263
rhand -17.665219183137445 1.0
rfingers nan
rthumb 8.709060289969281 -8.518767664495304
100
root 1.2341874855848727 17.891393261518065 45.8589144781755 -2.6654126814320653 -3.0259097571347784 -5.917677247354025
lfemur -5.920337371781381 -0.4619464805225193 -12.110153684525123
ltibia 58.51164132633036
lfoot -3.2477945691713486 2.042094326900811
ltoes -7.696771308379572
rfemur -12.283636993632518 4.775688258243563 29.849542122111778
rtibia 26.79207479609675
rfoot -17.730009512176714 -11.526870783105156
rtoes 1.0077674295425272
lowerback 1.0 -0.17210362289541392 3.3708832548825036
upperback 0.297040327620471 0.7305659962835971 2.7396290594915724
thorax -5.118541706375194 0.34695888410560416 1.3374711571052398
lowerneck -17.228625441305393 -2.8654402456848493 -1.0902055057449027
upperneck 21.146351234027115 -3.652901819977914 0.39174407930001565
head 9.56993026294671 -1.783577912873448 -0.0676732039777232
lclavicle -1.0597557544031753e-15 -3.987592234366897e-16
lhumerus -29.112752694707552 -1.8088231435335167 84.0294606324559
lradius 22.538869876653308
lwrist 7.124792297890419
lhand -27.130236365775623 23.24296443321509
lfingers nan
lthumb -0.3413957255710568 53.53318039791873
rclavicle -1.1531683839456589e-15 -4.753538602035611e-16
rhumerus -29.764468938515414 -21.599654997788313 -78.00465513373223
rradius 28.93289615878361
rwrist 4.810789454199316
rhand -17.649116552623052 1.0
rfingers nan
rthumb 8.670642001057846 -8.559291587541633
101
root 1.2104667809153922 17.882447795087444 45.441892681911504 -2.8739727892072997 -2.752178643255003 -5.67647858178068
lfemur -9.328390276206186 -0.21358480239455035 -12.149795527796273
ltibia 60.56604415026535
lfoot -3.9251465462480573 2.3746367488635354
ltoes -7.069656383959989
rfemur -9.345281462370197 4.5664439156648315 29.70316375757553
rtibia 26.898701262223774
rfoot -17.776787721882656 -11.842748994916615
rtoes -0.0573887272953586
lowerback 1.0 0.0307834826450607 3.338794232111088
upperback 0.31613805441366555 0.9725005849948274 2.6076192980375157
thorax -5.09986876853471 0.4651745793078603 0.9848559605192451
lowerneck -17.2125284818978 -2.942336124494274 -0.9843634202824736
upperneck 21.023845145005954 -3.7773463126939273 0.39568665741422754
head 9.53312740133211 -1.8338763145238839 -0.10903574240819508
lclavicle -1.0564152150883838e-15 -3.9815923716529784e-16
lhumerus -29.73286058696698 -1.3986986422483068 84.14450164387878
lradius 22.475586744864035
lwrist 7.313693142329031
lhand -27.19122344064206 23.19416161603531
lfingers nan
lthumb -0.4089516681087806 53.49782720385826
rclavicle -1.1483314605442945e-15 -4.729757288751127e-16
rhumerus -29.330882516232386 -21.189542015458635 -78.00200881640598
rradius 28.89724703441759
rwrist 4.745058724372814
rhand -17.66434719825648 1.0
rfingers nan
rthumb 8.660011861319504 -8.528682813200316
102
root 1.1885682837009428 17.871711980849444 44.983500616960136 -3.0647698367388623 -2.2685721738192246 -5.693185021215692
lfemur -12.48927367168826 -0.2884356554470471 -12.407235370183521
ltibia 60.95434419817623
lfoot -5.144048480316558 1.4001267443263297
ltoes -7.438440452729152
rfemur -6.940313597751618 4.279782628389931 29.593979974288217
rtibia 27.15211590505795
rfoot -16.53998840117042 -11.288410507099398
rtoes -0.8647481528977763
lowerback 1.0 0.21361751930691586 3.5201032102350975
upperback 0.3198510818677787 1.2910183728287803 2.4877935754635825
thorax -5.056765150943879 0.616680751584039 0.5550984194180366
lowerneck -17.115290957878802 -3.0193869706641405 -0.9591172247314177
upperneck 20.970296488703166 -3.901674027996416 0.4122129948191958
head 9.516823831607297 -1.883999413437341 -0.14021808859774756
lclavicle -1.054294601134264e-15 -3.9811775001427957e-16
lhumerus -30.31329010657475 -1.0359666945075328 84.24361168013318
lradius 22.551144243624496
lwrist 7.463490834898605
lhand -27.212482833554375 23.188588659558807
lfingers nan
lthumb -0.4433672253710321 53.47816857947346
rclavicle -1.1437774301526131e-15 -4.705229363310087e-16
rhumerus -28.906115996258134 -20.6520082503768 -78.06073815262761
rradius 28.87352191972813
rwrist 4.664219769201375
rhand -17.633616297259362 1.0
rfingers nan
rthumb 8.656488388989166 -8.476288559796759
103
root 1.1725950592044803 17.86486991671859 44.91968079958438 -3.155089741812597 -1.7208973001431374 -5.7961399497170305
lfemur -15.113730402773847 -0.5859083095042599 -12.850818239180562
ltibia 59.71294777615502
lfoot -4.971073563933626 2.487851626033634
ltoes -7.381867658399882
rfemur -5.002807206483651 4.109758435677837 29.522999345781233
rtibia 27.55102193034055
rfoot -14.118882617337192 -10.165627524051082
rtoes -1.098381077429576
lowerback 1.0 0.3457103793955826 3.71595222149677
upperback 0.2944159659432225 1.494775501151665 2.3233519238425724
thorax -5.028803699386628 0.7173276897894825 0.1636761481298763
lowerneck -16.969041300195315 -3.0881107495042466 -0.9852020524725523
upperneck 21.003808439568324 -4.013460756461308 0.4340318767452565
head 9.528795165696364 -1.9292576374521326 -0.16208359910959022
lclavicle -1.052572453000459e-15 -3.9867737466234306e-16
lhumerus -30.860501047750645 -0.7432315375045522 84.29519001889368
lradius 22.729443624918247
lwrist 7.589949732188455
lhand -27.230914032394402 23.154459683672794
lfingers nan
lthumb -0.4604987579932637 53.4456665442711
rclavicle -1.1387320141807955e-15 -4.678554310235754e-16
rhumerus -28.509162006169177 -20.04341197309123 -78.13695167444625
rradius 28.885607051284698
rwrist 4.581793203394433
rhand -17.644481519213507 1.0
rfingers nan
rthumb 8.674647938582243 -8.388786557416093
